{
  "accessors": [
    {
      "bufferView": 2,
      "componentType": 5126,
      "count": 12,
      "max": [
        0.21127699315547943,
        -0.08657199889421463,
        1.1592309474945068
      ],
      "min": [
        -0.10899099707603455,
        -0.08889400213956833,
        -1.113826036453247
      ],
      "type": "VEC3"
    },
    {
      "bufferView": 2,
      "byteOffset": 144,
      "componentType": 5126,
      "count": 12,
      "max": [
        0.0,
        -1.0,
        0.0
      ],
      "min": [
        0.0,
        -1.0,
        0.0
      ],
      "type": "VEC3"
    },
    {
      "bufferView": 1,
      "componentType": 5126,
      "count": 12,
      "max": [
        0.7566859722137451,
        0.4646730124950409
      ],
      "min": [
        0.27270999550819397,
        0.36482900381088257
      ],
      "type": "VEC2"
    },
    {
      "bufferView": 0,
      "componentType": 5125,
      "count": 18,
      "type": "SCALAR"
    },
    {
      "bufferView": 2,
      "byteOffset": 288,
      "componentType": 5126,
      "count": 80,
      "max": [
        0.5990359783172607,
        0.06313099712133408,
        1.2253129482269287
      ],
      "min": [
        -0.5904380083084106,
        -0.09187699854373932,
        -1.1707680225372314
      ],
      "type": "VEC3"
    },
    {
      "bufferView": 2,
      "byteOffset": 1248,
      "componentType": 5126,
      "count": 80,
      "max": [
        0.989635169506073,
        0.9929547309875488,
        0.0
      ],
      "min": [
        -0.989635169506073,
        -0.9929547309875488,
        0.0
      ],
      "type": "VEC3"
    },
    {
      "bufferView": 1,
      "byteOffset": 96,
      "componentType": 5126,
      "count": 80,
      "max": [
        1.0,
        0.8571590185165405
      ],
      "min": [
        0.9381939768791199,
        0.4285790026187897
      ],
      "type": "VEC2"
    },
    {
      "bufferView": 0,
      "byteOffset": 72,
      "componentType": 5125,
      "count": 192,
      "type": "SCALAR"
    },
    {
      "bufferView": 2,
      "byteOffset": 2208,
      "componentType": 5126,
      "count": 98,
      "max": [
        -0.4642690122127533,
        0.01984800025820732,
        1.2258280515670776
      ],
      "min": [
        -0.5294089913368225,
        -0.0452909991145134,
        1.1184159517288208
      ],
      "type": "VEC3"
    },
    {
      "bufferView": 2,
      "byteOffset": 3384,
      "componentType": 5126,
      "count": 98,
      "max": [
        1.0,
        1.0,
        0.0
      ],
      "min": [
        -1.0,
        -1.0,
        -1.0
      ],
      "type": "VEC3"
    },
    {
      "bufferView": 1,
      "byteOffset": 736,
      "componentType": 5126,
      "count": 98,
      "max": [
        1.0,
        1.0
      ],
      "min": [
        0.0,
        0.009999999776482582
      ],
      "type": "VEC2"
    },
    {
      "bufferView": 0,
      "byteOffset": 840,
      "componentType": 5125,
      "count": 282,
      "type": "SCALAR"
    },
    {
      "bufferView": 2,
      "byteOffset": 4560,
      "componentType": 5126,
      "count": 4,
      "max": [
        0.5450620055198669,
        -0.09155700355768204,
        0.9892669916152954
      ],
      "min": [
        -0.5364639759063721,
        -0.09155700355768204,
        -0.8973240256309509
      ],
      "type": "VEC3"
    },
    {
      "bufferView": 2,
      "byteOffset": 4608,
      "componentType": 5126,
      "count": 4,
      "max": [
        -0.0,
        -1.0,
        0.0
      ],
      "min": [
        -0.0,
        -1.0,
        0.0
      ],
      "type": "VEC3"
    },
    {
      "bufferView": 1,
      "byteOffset": 1520,
      "componentType": 5126,
      "count": 4,
      "max": [
        0.9272480010986328,
        0.917851984500885
      ],
      "min": [
        0.11987599730491638,
        0.12413500249385834
      ],
      "type": "VEC2"
    },
    {
      "bufferView": 0,
      "byteOffset": 1968,
      "componentType": 5125,
      "count": 6,
      "type": "SCALAR"
    },
    {
      "bufferView": 2,
      "byteOffset": 4656,
      "componentType": 5126,
      "count": 80,
      "max": [
        0.154107004404068,
        0.06673900038003922,
        1.1010589599609375
      ],
      "min": [
        -0.11592700332403183,
        0.06239200010895729,
        0.996383011341095
      ],
      "type": "VEC3"
    },
    {
      "bufferView": 2,
      "byteOffset": 5616,
      "componentType": 5126,
      "count": 80,
      "max": [
        0.9951865673065186,
        1.0,
        0.9951865673065186
      ],
      "min": [
        -0.9951865673065186,
        -1.0,
        -0.9951865673065186
      ],
      "type": "VEC3"
    },
    {
      "bufferView": 1,
      "byteOffset": 1552,
      "componentType": 5126,
      "count": 80,
      "max": [
        0.8011379837989807,
        0.6589329838752747
      ],
      "min": [
        0.07920599728822708,
        0.38000598549842834
      ],
      "type": "VEC2"
    },
    {
      "bufferView": 0,
      "byteOffset": 1992,
      "componentType": 5125,
      "count": 228,
      "type": "SCALAR"
    },
    {
      "bufferView": 2,
      "byteOffset": 6576,
      "componentType": 5126,
      "count": 64,
      "max": [
        0.5118889808654785,
        0.06604799628257751,
        1.1469160318374634
      ],
      "min": [
        -0.3159570097923279,
        -0.09079200029373169,
        0.9750120043754578
      ],
      "type": "VEC3"
    },
    {
      "bufferView": 2,
      "byteOffset": 7344,
      "componentType": 5126,
      "count": 64,
      "max": [
        -0.0,
        -1.0,
        0.0
      ],
      "min": [
        -0.0,
        -1.0,
        0.0
      ],
      "type": "VEC3"
    },
    {
      "bufferView": 1,
      "byteOffset": 2192,
      "componentType": 5126,
      "count": 64,
      "max": [
        0.8439679741859436,
        0.8439679741859436
      ],
      "min": [
        0.156031996011734,
        0.156031996011734
      ],
      "type": "VEC2"
    },
    {
      "bufferView": 0,
      "byteOffset": 2904,
      "componentType": 5125,
      "count": 180,
      "type": "SCALAR"
    },
    {
      "bufferView": 2,
      "byteOffset": 8112,
      "componentType": 5126,
      "count": 784,
      "max": [
        0.11872299760580063,
        0.022106999531388283,
        -1.0692700147628784
      ],
      "min": [
        -0.10759399831295013,
        -0.049981001764535904,
        -1.1706349849700928
      ],
      "type": "VEC3"
    },
    {
      "bufferView": 2,
      "byteOffset": 17520,
      "componentType": 5126,
      "count": 784,
      "max": [
        1.0,
        1.0,
        1.0
      ],
      "min": [
        -1.0,
        -1.0,
        -1.0
      ],
      "type": "VEC3"
    },
    {
      "bufferView": 1,
      "byteOffset": 2704,
      "componentType": 5126,
      "count": 784,
      "max": [
        0.875,
        1.0
      ],
      "min": [
        0.0,
        0.0
      ],
      "type": "VEC2"
    },
    {
      "bufferView": 0,
      "byteOffset": 3624,
      "componentType": 5125,
      "count": 1434,
      "type": "SCALAR"
    },
    {
      "bufferView": 2,
      "byteOffset": 26928,
      "componentType": 5126,
      "count": 544,
      "max": [
        0.5234889984130859,
        0.06767299771308899,
        1.1392450332641602
      ],
      "min": [
        0.3487060070037842,
        0.06030400097370148,
        0.9644610285758972
      ],
      "type": "VEC3"
    },
    {
      "bufferView": 2,
      "byteOffset": 33456,
      "componentType": 5126,
      "count": 544,
      "max": [
        0.5253076553344727,
        1.0,
        0.525190532207489
      ],
      "min": [
        -0.5253076553344727,
        0.8503736257553101,
        -0.5253076553344727
      ],
      "type": "VEC3"
    },
    {
      "bufferView": 1,
      "byteOffset": 8976,
      "componentType": 5126,
      "count": 544,
      "max": [
        0.0,
        0.0
      ],
      "min": [
        0.0,
        0.0
      ],
      "type": "VEC2"
    },
    {
      "bufferView": 0,
      "byteOffset": 9360,
      "componentType": 5125,
      "count": 2496,
      "type": "SCALAR"
    },
    {
      "bufferView": 2,
      "byteOffset": 39984,
      "componentType": 5126,
      "count": 940,
      "max": [
        0.6007680296897888,
        0.019416000694036484,
        0.596310019493103
      ],
      "min": [
        -0.592635989189148,
        -0.05172500014305115,
        -0.7384750247001648
      ],
      "type": "VEC3"
    },
    {
      "bufferView": 2,
      "byteOffset": 51264,
      "componentType": 5126,
      "count": 940,
      "max": [
        1.0,
        0.9973758459091187,
        0.9933773875236511
      ],
      "min": [
        -1.0,
        -0.9973758459091187,
        -0.9933773875236511
      ],
      "type": "VEC3"
    },
    {
      "bufferView": 1,
      "byteOffset": 13328,
      "componentType": 5126,
      "count": 940,
      "max": [
        0.875,
        1.0
      ],
      "min": [
        0.125,
        -0.017558999359607697
      ],
      "type": "VEC2"
    },
    {
      "bufferView": 0,
      "byteOffset": 19344,
      "componentType": 5125,
      "count": 2544,
      "type": "SCALAR"
    },
    {
      "bufferView": 2,
      "byteOffset": 62544,
      "componentType": 5126,
      "count": 774,
      "max": [
        0.5989750027656555,
        0.0628110021352768,
        1.2259650230407715
      ],
      "min": [
        -0.5903769731521606,
        -0.09155700355768204,
        -1.1712729930877686
      ],
      "type": "VEC3"
    },
    {
      "bufferView": 2,
      "byteOffset": 71832,
      "componentType": 5126,
      "count": 774,
      "max": [
        1.0,
        1.0,
        1.0
      ],
      "min": [
        -1.0,
        -1.0,
        -1.0
      ],
      "type": "VEC3"
    },
    {
      "bufferView": 1,
      "byteOffset": 20848,
      "componentType": 5126,
      "count": 774,
      "max": [
        1.0,
        0.9645010232925415
      ],
      "min": [
        0.0,
        -0.005859000142663717
      ],
      "type": "VEC2"
    },
    {
      "bufferView": 0,
      "byteOffset": 29520,
      "componentType": 5125,
      "count": 2373,
      "type": "SCALAR"
    },
    {
      "bufferView": 2,
      "byteOffset": 81120,
      "componentType": 5126,
      "count": 64,
      "max": [
        0.5101699829101563,
        0.05989199876785278,
        1.1469160318374634
      ],
      "min": [
        -0.3159570097923279,
        -0.09074100106954575,
        0.9780259728431702
      ],
      "type": "VEC3"
    },
    {
      "bufferView": 2,
      "byteOffset": 81888,
      "componentType": 5126,
      "count": 64,
      "max": [
        -0.0,
        1.0,
        0.0
      ],
      "min": [
        -0.0,
        -1.0,
        0.0
      ],
      "type": "VEC3"
    },
    {
      "bufferView": 1,
      "byteOffset": 27040,
      "componentType": 5126,
      "count": 64,
      "max": [
        1.088696002960205,
        1.088696002960205
      ],
      "min": [
        -0.08869700133800507,
        -0.08869700133800507
      ],
      "type": "VEC2"
    },
    {
      "bufferView": 0,
      "byteOffset": 39012,
      "componentType": 5125,
      "count": 180,
      "type": "SCALAR"
    }
  ],
  "asset": {
    "extras": {
      "author": "Niilo Poutanen (https://sketchfab.com/niilo.poutanen)",
      "license": "CC-BY-4.0 (http://creativecommons.org/licenses/by/4.0/)",
      "source": "https://sketchfab.com/3d-models/sony-xz1-compact-8720e10653a9436ca59b6e09eb1e6e17",
      "title": "Sony XZ1 compact"
    },
    "generator": "Sketchfab-11.60.0",
    "version": "2.0"
  },
  "bufferViews": [
    {
      "buffer": 0,
      "byteLength": 39732,
      "name": "floatBufferViews",
      "target": 34963
    },
    {
      "buffer": 0,
      "byteLength": 27552,
      "byteOffset": 39732,
      "byteStride": 8,
      "name": "floatBufferViews",
      "target": 34962
    },
    {
      "buffer": 0,
      "byteLength": 82656,
      "byteOffset": 67284,
      "byteStride": 12,
      "name": "floatBufferViews",
      "target": 34962
    }
  ],
  "buffers": [
    {
      "byteLength": 149940,
      "uri": "scene.bin"
    }
  ],
  "extensionsUsed": [
    "KHR_materials_clearcoat"
  ],
  "images": [
    {
      "uri": "textures/Kaiutin_baseColor.png"
    },
    {
      "uri": "textures/Nytt_baseColor.png"
    },
    {
      "uri": "textures/Runko_baseColor.png"
    },
    {
      "uri": "textures/Selfie_camera_baseColor.jpeg"
    },
    {
      "uri": "textures/Takasalama_baseColor.png"
    }
  ],
  "materials": [
    {
      "alphaMode": "BLEND",
      "doubleSided": true,
      "name": "Glass",
      "pbrMetallicRoughness": {
        "baseColorFactor": [
          0.0356408125,
          0.0356408125,
          0.0356408125,
          0.3726006117
        ],
        "metallicFactor": 0.4759635554,
        "roughnessFactor": 0.1476342046
      }
    },
    {
      "doubleSided": true,
      "name": "Kaiutin",
      "pbrMetallicRoughness": {
        "baseColorTexture": {
          "index": 0
        },
        "metallicFactor": 0.0,
        "roughnessFactor": 0.9661687672
      }
    },
    {
      "doubleSided": true,
      "name": "Lataus",
      "pbrMetallicRoughness": {
        "baseColorFactor": [
          0.049965,
          0.049965,
          0.049965,
          1.0
        ],
        "metallicFactor": 0.0,
        "roughnessFactor": 0.8063508327
      }
    },
    {
      "doubleSided": true,
      "name": "Metalli",
      "pbrMetallicRoughness": {
        "baseColorFactor": [
          0.3636653736,
          0.3636653736,
          0.3636653736,
          1.0
        ],
        "roughnessFactor": 0.6644489235
      }
    },
    {
      "doubleSided": true,
      "name": "Musta_metalli",
      "pbrMetallicRoughness": {
        "baseColorFactor": [
          0.059648,
          0.059648,
          0.059648,
          1.0
        ],
        "metallicFactor": 0.0,
        "roughnessFactor": 0.7778040411
      }
    },
    {
      "doubleSided": true,
      "name": "Musta_muovi",
      "pbrMetallicRoughness": {
        "baseColorFactor": [
          0.009134,
          0.009134,
          0.009134,
          1.0
        ],
        "metallicFactor": 0.0,
        "roughnessFactor": 0.8063508327
      }
    },
    {
      "doubleSided": true,
      "name": "Napit",
      "pbrMetallicRoughness": {
        "baseColorFactor": [
          0.0,
          0.0,
          0.0,
          1.0
        ],
        "metallicFactor": 0.0,
        "roughnessFactor": 0.7880318376
      }
    },
    {
      "doubleSided": true,
      "extensions": {
        "KHR_materials_clearcoat": {
          "clearcoatFactor": 1.0,
          "clearcoatRoughnessFactor": 0.04
        }
      },
      "name": "Nytt",
      "pbrMetallicRoughness": {
        "baseColorTexture": {
          "index": 1
        },
        "metallicFactor": 0.0,
        "roughnessFactor": 0.2089359163
      }
    },
    {
      "doubleSided": true,
      "extensions": {
        "KHR_materials_clearcoat": {
          "clearcoatFactor": 0.07467212666216734,
          "clearcoatRoughnessFactor": 0.04
        }
      },
      "name": "Runko",
      "pbrMetallicRoughness": {
        "baseColorTexture": {
          "index": 2
        },
        "metallicFactor": 0.2753178411,
        "roughnessFactor": 0.3300393995
      }
    },
    {
      "doubleSided": true,
      "name": "Selfie_camera",
      "pbrMetallicRoughness": {
        "baseColorTexture": {
          "index": 3
        },
        "metallicFactor": 0.0,
        "roughnessFactor": 0.8063508327
      }
    },
    {
      "doubleSided": true,
      "name": "Takasalama",
      "pbrMetallicRoughness": {
        "baseColorTexture": {
          "index": 4
        },
        "metallicFactor": 0.0,
        "roughnessFactor": 0.2084359363
      }
    }
  ],
  "meshes": [
    {
      "name": "Object_0",
      "primitives": [
        {
          "attributes": {
            "NORMAL": 1,
            "POSITION": 0,
            "TEXCOORD_0": 2
          },
          "indices": 3,
          "material": 1,
          "mode": 4
        }
      ]
    },
    {
      "name": "Object_1",
      "primitives": [
        {
          "attributes": {
            "NORMAL": 5,
            "POSITION": 4,
            "TEXCOORD_0": 6
          },
          "indices": 7,
          "material": 3,
          "mode": 4
        }
      ]
    },
    {
      "name": "Object_2",
      "primitives": [
        {
          "attributes": {
            "NORMAL": 9,
            "POSITION": 8,
            "TEXCOORD_0": 10
          },
          "indices": 11,
          "material": 5,
          "mode": 4
        }
      ]
    },
    {
      "name": "Object_3",
      "primitives": [
        {
          "attributes": {
            "NORMAL": 13,
            "POSITION": 12,
            "TEXCOORD_0": 14
          },
          "indices": 15,
          "material": 7,
          "mode": 4
        }
      ]
    },
    {
      "name": "Object_4",
      "primitives": [
        {
          "attributes": {
            "NORMAL": 17,
            "POSITION": 16,
            "TEXCOORD_0": 18
          },
          "indices": 19,
          "material": 10,
          "mode": 4
        }
      ]
    },
    {
      "name": "Object_5",
      "primitives": [
        {
          "attributes": {
            "NORMAL": 21,
            "POSITION": 20,
            "TEXCOORD_0": 22
          },
          "indices": 23,
          "material": 0,
          "mode": 4
        }
      ]
    },
    {
      "name": "Object_6",
      "primitives": [
        {
          "attributes": {
            "NORMAL": 25,
            "POSITION": 24,
            "TEXCOORD_0": 26
          },
          "indices": 27,
          "material": 2,
          "mode": 4
        }
      ]
    },
    {
      "name": "Object_7",
      "primitives": [
        {
          "attributes": {
            "NORMAL": 29,
            "POSITION": 28,
            "TEXCOORD_0": 30
          },
          "indices": 31,
          "material": 4,
          "mode": 4
        }
      ]
    },
    {
      "name": "Object_8",
      "primitives": [
        {
          "attributes": {
            "NORMAL": 33,
            "POSITION": 32,
            "TEXCOORD_0": 34
          },
          "indices": 35,
          "material": 6,
          "mode": 4
        }
      ]
    },
    {
      "name": "Object_9",
      "primitives": [
        {
          "attributes": {
            "NORMAL": 37,
            "POSITION": 36,
            "TEXCOORD_0": 38
          },
          "indices": 39,
          "material": 8,
          "mode": 4
        }
      ]
    },
    {
      "name": "Object_10",
      "primitives": [
        {
          "attributes": {
            "NORMAL": 41,
            "POSITION": 40,
            "TEXCOORD_0": 42
          },
          "indices": 43,
          "material": 9,
          "mode": 4
        }
      ]
    }
  ],
  "nodes": [
    {
      "children": [
        1
      ],
      "matrix": [
        0.5,
        0.0,
        0.0,
        0.0,
        0.0,
        1.1102230246251565e-16,
        -0.5,
        0.0,
        0.0,
        0.5,
        1.1102230246251565e-16,
        0.0,
        0.0,
        0.0,
        0.0,
        1.0
      ],
      "name": "Sketchfab_model"
    },
    {
      "children": [
        2,
        3,
        4,
        5,
        6,
        7,
        8,
        9,
        10,
        11,
        12
      ],
      "name": "XZ1.obj.cleaner.materialmerger.gles"
    },
    {
      "mesh": 0,
      "name": "Object_2"
    },
    {
      "mesh": 1,
      "name": "Object_3"
    },
    {
      "mesh": 2,
      "name": "Object_4"
    },
    {
      "mesh": 3,
      "name": "Object_5"
    },
    {
      "mesh": 4,
      "name": "Object_6"
    },
    {
      "mesh": 5,
      "name": "Object_7"
    },
    {
      "mesh": 6,
      "name": "Object_8"
    },
    {
      "mesh": 7,
      "name": "Object_9"
    },
    {
      "mesh": 8,
      "name": "Object_10"
    },
    {
      "mesh": 9,
      "name": "Object_11"
    },
    {
      "mesh": 10,
      "name": "Object_12"
    }
  ],
  "samplers": [
    {
      "magFilter": 9729,
      "minFilter": 9987,
      "wrapS": 10497,
      "wrapT": 10497
    }
  ],
  "scene": 0,
  "scenes": [
    {
      "name": "Sketchfab_Scene",
      "nodes": [
        0
      ]
    }
  ],
  "textures": [
    {
      "sampler": 0,
      "source": 0
    },
    {
      "sampler": 0,
      "source": 1
    },
    {
      "sampler": 0,
      "source": 2
    },
    {
      "sampler": 0,
      "source": 3
    },
    {
      "sampler": 0,
      "source": 4
    }
  ]
}
